<svg xmlns="http://www.w3.org/2000/svg" width="360" height="333" viewBox="0 0 360 333" fill="none">
<path d="M197.696 331.945C129.176 316.345 10.1686 251.982 0.453807 131.557C-5.36577 59.4183 44.6566 28.3197 158.044 5.78993C240.664 -10.6263 376.702 0.566656 358.31 136.955C343.906 243.772 252.636 344.453 197.696 331.945Z" fill="#E2F2F9"/>
<path d="M135.688 82.9244L143.692 82.7008C145.332 82.6549 146.074 80.7974 144.854 79.7898L139.758 75.58C137.534 73.7429 138.95 70.3569 141.943 70.3569H162.293H196.766C210.343 70.3569 221.349 80.4541 221.349 92.9098V124.756H137.71V98.5788C137.71 96.5655 137.193 94.5804 136.2 92.7844L133.026 87.0403C132.002 85.1878 133.425 82.9879 135.688 82.9244Z" fill="#365E7D"/>
<path d="M196.766 70.3569H189.128C202.705 70.3569 213.711 80.4541 213.711 92.9098V124.756H221.349V92.9098C221.349 80.4541 210.343 70.3569 196.766 70.3569V70.3569Z" fill="#2B4D66"/>
<path d="M228.246 231.131H130.124C128.695 231.131 127.537 230.068 127.537 228.757V183.271C127.537 165.899 142.888 151.815 161.824 151.815H196.545C215.482 151.815 230.833 165.899 230.833 183.271V228.757C230.833 230.068 229.675 231.131 228.246 231.131Z" fill="#61A2F9"/>
<path d="M196.546 151.815H186.84C205.777 151.815 221.128 165.899 221.128 183.271V231.131H228.247C229.676 231.131 230.834 230.068 230.834 228.757V183.271C230.834 165.899 215.483 151.815 196.546 151.815Z" fill="#5490F9"/>
<path d="M179.186 176.111L169.636 182.504C168.744 183.102 167.477 182.74 167.112 181.784L155.49 151.354L162.455 145.102L167.168 157.015L179.186 176.111Z" fill="#F6F1F1"/>
<path d="M179.186 176.111L188.736 182.504C189.628 183.102 190.894 182.74 191.259 181.784L202.881 151.354L195.917 145.102L191.203 157.015L179.186 176.111Z" fill="#F6F1F1"/>
<path d="M179.186 176.111L191.203 157.016H167.168L179.186 176.111Z" fill="#E2A770"/>
<path d="M179.186 162.703C160.749 162.703 145.802 148.991 145.802 132.077V105.557C145.802 103.372 146.448 101.346 147.562 99.6143C151.036 94.2157 158.974 93.0008 164.402 96.8095C174.363 103.799 185.246 106.049 197.286 102.356C204.492 100.145 212.215 104.674 212.555 111.637C212.564 111.813 212.568 111.991 212.568 112.168V132.077C212.569 148.991 197.623 162.703 179.186 162.703Z" fill="#F1D0A5"/>
<path d="M212.556 111.637C212.215 104.673 204.493 100.145 197.287 102.356C197.224 102.375 197.162 102.391 197.099 102.41C201.265 103.758 204.478 107.202 204.695 111.637C204.704 111.813 204.708 111.99 204.708 112.168V132.077C204.708 147.771 191.84 160.706 175.255 162.49C176.545 162.629 177.856 162.703 179.185 162.703C197.622 162.703 212.568 148.991 212.568 132.077V112.168C212.569 111.99 212.565 111.813 212.556 111.637Z" fill="#F1B986"/>
<path d="M163.874 124.85C162.414 124.85 161.23 123.764 161.23 122.424V119.045C161.23 117.705 162.414 116.619 163.874 116.619C165.335 116.619 166.519 117.705 166.519 119.045V122.424C166.519 123.764 165.335 124.85 163.874 124.85Z" fill="#2B4D66"/>
<path d="M194.497 124.85C193.036 124.85 191.852 123.764 191.852 122.424V119.045C191.852 117.705 193.036 116.619 194.497 116.619C195.957 116.619 197.141 117.705 197.141 119.045V122.424C197.142 123.764 195.958 124.85 194.497 124.85Z" fill="#2B4D66"/>
<path d="M179.186 148.254C176.757 148.254 174.328 147.583 171.967 146.242C170.725 145.536 170.342 144.041 171.11 142.902C171.879 141.762 173.509 141.411 174.751 142.116C177.777 143.835 180.595 143.834 183.621 142.116C184.862 141.412 186.493 141.762 187.261 142.902C188.03 144.041 187.647 145.536 186.405 146.242C184.043 147.583 181.614 148.254 179.186 148.254Z" fill="#DD636E"/>
<path d="M145.803 129.219H140.45C136.737 129.219 133.726 126.457 133.726 123.051C133.726 119.644 136.737 116.882 140.45 116.882H145.803V129.219Z" fill="#E2A770"/>
<path d="M214.331 146.762H191.619C190.159 146.762 188.975 145.676 188.975 144.336C188.975 142.996 190.159 141.91 191.619 141.91H214.331C215.382 141.91 216.237 141.126 216.237 140.162V128.541C216.237 127.201 217.42 126.115 218.881 126.115C220.342 126.115 221.525 127.201 221.525 128.541V140.162C221.526 143.801 218.298 146.762 214.331 146.762Z" fill="#2B4D66"/>
<path d="M192.008 148.057H185.085C183.296 148.057 181.846 146.727 181.846 145.086V143.732C181.846 142.091 183.296 140.76 185.085 140.76H192.008C193.797 140.76 195.248 142.091 195.248 143.732V145.086C195.248 146.727 193.797 148.057 192.008 148.057Z" fill="#365E7D"/>
<path d="M215.499 231.173H142.872L136.434 199.487C135.808 196.408 138.384 193.563 141.798 193.563H216.573C219.987 193.563 222.563 196.408 221.937 199.487L215.499 231.173Z" fill="#365E7D"/>
<path d="M216.573 193.563H209.412C212.826 193.563 215.401 196.407 214.776 199.486L208.338 231.173H215.499L221.937 199.486C222.563 196.407 219.987 193.563 216.573 193.563Z" fill="#2B4D66"/>
<path d="M179.186 225.404C183.335 225.404 186.7 222.318 186.7 218.511C186.7 214.704 183.335 211.618 179.186 211.618C175.036 211.618 171.672 214.704 171.672 218.511C171.672 222.318 175.036 225.404 179.186 225.404Z" fill="#F6F1F1"/>
<path d="M179.186 211.618C178.187 211.618 177.235 211.8 176.363 212.125C179.113 213.149 181.055 215.62 181.055 218.511C181.055 221.402 179.113 223.873 176.363 224.897C177.235 225.222 178.187 225.404 179.186 225.404C183.335 225.404 186.7 222.318 186.7 218.511C186.7 214.704 183.335 211.618 179.186 211.618Z" fill="#DAE4EA"/>
<path d="M213.627 193.563H195.555V188.292C195.555 186.725 196.94 185.455 198.648 185.455H210.533C212.241 185.455 213.626 186.725 213.626 188.292V193.563H213.627Z" fill="#F6F1F1"/>
<path d="M212.569 131.776H218.881C223.855 131.776 227.887 128.077 227.887 123.513V122.588C227.887 118.025 223.855 114.326 218.881 114.326H212.569V131.776Z" fill="#61A2F9"/>
<path d="M218.881 114.326H212.569V114.328C217.509 114.364 221.503 118.048 221.503 122.588V123.513C221.503 128.054 217.509 131.739 212.569 131.774V131.776H218.881C223.855 131.776 227.887 128.077 227.887 123.513V122.588C227.887 118.025 223.855 114.326 218.881 114.326Z" fill="#5490F9"/>
</svg>